<mxfile host="app.diagrams.net" modified="2023-05-28T14:59:46.739Z" agent="Mozilla/5.0 (Windows NT 10.0; Win64; x64) AppleWebKit/537.36 (KHTML, like Gecko) Chrome/113.0.0.0 Safari/537.36 Edg/113.0.1774.57" etag="gKliRcmcEC2SHHMoOnwi" version="21.3.2" type="github">
  <diagram name="第 1 页" id="e0e0eoECZ1-TbGyJ8K0s">
    <mxGraphModel dx="-68" dy="426" grid="1" gridSize="10" guides="1" tooltips="1" connect="1" arrows="1" fold="1" page="1" pageScale="1" pageWidth="827" pageHeight="1169" math="0" shadow="0">
      <root>
        <mxCell id="0" />
        <mxCell id="1" parent="0" />
        <mxCell id="VEo8d5hnItl4Jb0tfuEO-1" value="[1,3,640,640]" style="rounded=0;whiteSpace=wrap;html=1;fillColor=none;strokeColor=none;" vertex="1" parent="1">
          <mxGeometry x="1365" y="70" width="120" height="30" as="geometry" />
        </mxCell>
        <mxCell id="VEo8d5hnItl4Jb0tfuEO-2" value="Bottleneck&lt;br&gt;Bool" style="rounded=0;whiteSpace=wrap;html=1;fillColor=#d80073;strokeColor=#000000;fontColor=#ffffff;" vertex="1" parent="1">
          <mxGeometry x="1180" y="280" width="80" height="30" as="geometry" />
        </mxCell>
        <mxCell id="VEo8d5hnItl4Jb0tfuEO-3" value="Concat" style="rhombus;whiteSpace=wrap;html=1;fillColor=#fff2cc;strokeColor=#000000;" vertex="1" parent="1">
          <mxGeometry x="1330" y="320" width="90" height="36" as="geometry" />
        </mxCell>
        <mxCell id="VEo8d5hnItl4Jb0tfuEO-4" value="Conv&lt;br&gt;k=6 s=2" style="rounded=0;whiteSpace=wrap;html=1;fillColor=#dae8fc;strokeColor=#000000;" vertex="1" parent="1">
          <mxGeometry x="1180" y="390" width="80" height="30" as="geometry" />
        </mxCell>
        <mxCell id="VEo8d5hnItl4Jb0tfuEO-5" value="Conv&lt;br&gt;k=6 s=2" style="rounded=0;whiteSpace=wrap;html=1;fillColor=#dae8fc;strokeColor=#000000;" vertex="1" parent="1">
          <mxGeometry x="1450" y="323" width="80" height="30" as="geometry" />
        </mxCell>
        <mxCell id="VEo8d5hnItl4Jb0tfuEO-6" value="Conv&lt;br&gt;k=6 s=2" style="rounded=0;whiteSpace=wrap;html=1;fillColor=#dae8fc;strokeColor=#000000;" vertex="1" parent="1">
          <mxGeometry x="980" y="280" width="80" height="30" as="geometry" />
        </mxCell>
        <mxCell id="VEo8d5hnItl4Jb0tfuEO-7" value="[bs,c1/2,w,h]" style="rounded=0;whiteSpace=wrap;html=1;fillColor=none;strokeColor=none;" vertex="1" parent="1">
          <mxGeometry x="1100" y="200" width="80" height="30" as="geometry" />
        </mxCell>
        <mxCell id="VEo8d5hnItl4Jb0tfuEO-8" value="" style="endArrow=classic;html=1;rounded=0;" edge="1" parent="1" target="VEo8d5hnItl4Jb0tfuEO-6">
          <mxGeometry width="50" height="50" relative="1" as="geometry">
            <mxPoint x="880" y="295" as="sourcePoint" />
            <mxPoint x="900" y="260" as="targetPoint" />
          </mxGeometry>
        </mxCell>
        <mxCell id="VEo8d5hnItl4Jb0tfuEO-9" value="" style="endArrow=classic;html=1;rounded=0;" edge="1" parent="1" source="VEo8d5hnItl4Jb0tfuEO-6" target="VEo8d5hnItl4Jb0tfuEO-2">
          <mxGeometry width="50" height="50" relative="1" as="geometry">
            <mxPoint x="890" y="305" as="sourcePoint" />
            <mxPoint x="990" y="305" as="targetPoint" />
          </mxGeometry>
        </mxCell>
        <mxCell id="VEo8d5hnItl4Jb0tfuEO-10" value="" style="endArrow=classic;html=1;rounded=0;entryX=0;entryY=0.5;entryDx=0;entryDy=0;exitX=1;exitY=0.5;exitDx=0;exitDy=0;" edge="1" parent="1" source="VEo8d5hnItl4Jb0tfuEO-2" target="VEo8d5hnItl4Jb0tfuEO-3">
          <mxGeometry width="50" height="50" relative="1" as="geometry">
            <mxPoint x="900" y="315" as="sourcePoint" />
            <mxPoint x="1000" y="315" as="targetPoint" />
          </mxGeometry>
        </mxCell>
        <mxCell id="VEo8d5hnItl4Jb0tfuEO-11" value="" style="endArrow=classic;html=1;rounded=0;exitX=1;exitY=0.5;exitDx=0;exitDy=0;entryX=0;entryY=0.5;entryDx=0;entryDy=0;" edge="1" parent="1" source="VEo8d5hnItl4Jb0tfuEO-4" target="VEo8d5hnItl4Jb0tfuEO-3">
          <mxGeometry width="50" height="50" relative="1" as="geometry">
            <mxPoint x="910" y="325" as="sourcePoint" />
            <mxPoint x="1010" y="325" as="targetPoint" />
          </mxGeometry>
        </mxCell>
        <mxCell id="VEo8d5hnItl4Jb0tfuEO-12" value="" style="endArrow=classic;html=1;rounded=0;" edge="1" parent="1" source="VEo8d5hnItl4Jb0tfuEO-3" target="VEo8d5hnItl4Jb0tfuEO-5">
          <mxGeometry width="50" height="50" relative="1" as="geometry">
            <mxPoint x="920" y="335" as="sourcePoint" />
            <mxPoint x="1020" y="335" as="targetPoint" />
          </mxGeometry>
        </mxCell>
        <mxCell id="VEo8d5hnItl4Jb0tfuEO-13" value="" style="endArrow=classic;html=1;rounded=0;exitX=1;exitY=0.5;exitDx=0;exitDy=0;" edge="1" parent="1" source="VEo8d5hnItl4Jb0tfuEO-5">
          <mxGeometry width="50" height="50" relative="1" as="geometry">
            <mxPoint x="930" y="345" as="sourcePoint" />
            <mxPoint x="1590" y="338" as="targetPoint" />
          </mxGeometry>
        </mxCell>
        <mxCell id="VEo8d5hnItl4Jb0tfuEO-15" value="" style="endArrow=classic;html=1;rounded=0;" edge="1" parent="1" target="VEo8d5hnItl4Jb0tfuEO-4">
          <mxGeometry width="50" height="50" relative="1" as="geometry">
            <mxPoint x="880" y="295" as="sourcePoint" />
            <mxPoint x="1184.88" y="413.53999999999996" as="targetPoint" />
            <Array as="points">
              <mxPoint x="940" y="295" />
              <mxPoint x="940" y="405" />
            </Array>
          </mxGeometry>
        </mxCell>
      </root>
    </mxGraphModel>
  </diagram>
</mxfile>
